<mxfile host="app.diagrams.net" modified="2023-07-25T03:49:49.856Z" agent="Mozilla/5.0 (Windows NT 10.0; Win64; x64) AppleWebKit/537.36 (KHTML, like Gecko) Chrome/112.0.0.0 Safari/537.36" version="21.6.5" etag="unQyVHXWTomB0bbEin2l" type="github">
  <diagram name="第 1 页" id="dK_C1cdjqwSaiQHP3hFn">
    <mxGraphModel>
      <root>
        <mxCell id="0" />
        <mxCell id="1" parent="0" />
      </root>
    </mxGraphModel>
  </diagram>
</mxfile>
